<svg xmlns="http://www.w3.org/2000/svg">
  <defs>
    <!-- Star icon -->
    <symbol id="icon-star" viewBox="0 0 24 24">
      <path d="M12 2l3.09 6.26L22 9.27l-5 4.87 1.18 6.88L12 17.77l-6.18 3.25L7 14.14 2 9.27l6.91-1.01L12 2z" fill="currentColor"/>
    </symbol>
    <!-- Heart icon -->
    <symbol id="icon-heart" viewBox="0 0 24 24">
      <path d="M12 21.35l-1.45-1.32C5.4 15.36 2 12.28 2 8.5 2 5.42 4.42 3 7.5 3c1.74 0 3.41.81 4.5 2.09C13.09 3.81 14.76 3 16.5 3 19.58 3 22 5.42 22 8.5c0 3.78-3.4 6.86-8.55 11.54L12 21.35z" fill="currentColor"/>
    </symbol>
    <!-- Lock icon -->
    <symbol id="icon-lock" viewBox="0 0 24 24">
      <path d="M18 8h-1V6c0-2.76-2.24-5-5-5S7 3.24 7 6v2H6c-1.1 0-2 .9-2 2v10c0 1.1.9 2 2 2h12c1.1 0 2-.9 2-2V10c0-1.1-.9-2-2-2zm-6 9c-1.1 0-2-.9-2-2s.9-2 2-2 2 .9 2 2-.9 2-2 2zm3.1-9H8.9V6c0-1.71 1.39-3.1 3.1-3.1 1.71 0 3.1 1.39 3.1 3.1v2z" fill="currentColor"/>
    </symbol>
    <!-- Check icon -->
    <symbol id="icon-check" viewBox="0 0 24 24">
      <path d="M9 16.17L4.83 12l-1.42 1.41L9 19 21 7l-1.41-1.41z" fill="currentColor"/>
    </symbol>
    <!-- Book icon -->
    <symbol id="icon-book" viewBox="0 0 24 24">
      <path d="M18 2H6c-1.1 0-2 .9-2 2v16c0 1.1.9 2 2 2h12c1.1 0 2-.9 2-2V4c0-1.1-.9-2-2-2zM6 4h5v8l-2.5-1.5L6 12V4z" fill="currentColor"/>
    </symbol>
    <!-- Back arrow icon -->
    <symbol id="icon-back" viewBox="0 0 24 24">
      <path d="M20 11H7.83l5.59-5.59L12 4l-8 8 8 8 1.41-1.41L7.83 13H20v-2z" fill="currentColor"/>
    </symbol>
    <!-- Close icon -->
    <symbol id="icon-close" viewBox="0 0 24 24">
      <path d="M19 6.41L17.59 5 12 10.59 6.41 5 5 6.41 10.59 12 5 17.59 6.41 19 12 13.41 17.59 19 19 17.59 13.41 12z" fill="currentColor"/>
    </symbol>
  </defs>
</svg>
